<?xml version="1.0" encoding="utf-8"?>
<!-- Generator: Adobe Illustrator 16.0.0, SVG Export Plug-In . SVG Version: 6.00 Build 0)  -->
<!DOCTYPE svg PUBLIC "-//W3C//DTD SVG 1.1//EN" "http://www.w3.org/Graphics/SVG/1.1/DTD/svg11.dtd">
<svg version="1.1" id="Layer_1" xmlns="http://www.w3.org/2000/svg" xmlns:xlink="http://www.w3.org/1999/xlink" x="0px" y="0px"
	 width="23.266px" height="23.25px" viewBox="0 0 23.266 23.25" enable-background="new 0 0 23.266 23.25" xml:space="preserve">
<g>
	<g>
		<g>
			<path fill="#FFFFFF" d="M11.644,0.057c-6.383,0-11.576,5.193-11.576,11.576c0,6.382,5.193,11.576,11.576,11.576
				S23.22,18.016,23.22,11.633C23.22,5.25,18.027,0.057,11.644,0.057z M14.521,12.041h-1.883c0,3.008,0,6.713,0,6.713h-2.79
				c0,0,0-3.668,0-6.713H8.521V9.667h1.327V8.133c0-1.1,0.521-2.816,2.816-2.816l2.067,0.008v2.303c0,0-1.257,0-1.501,0
				S12.64,7.75,12.64,8.274v1.395h2.126L14.521,12.041z"/>
		</g>
	</g>
</g>
</svg>
