<?xml version="1.0" encoding="utf-8"?>
<!-- Generator: Adobe Illustrator 16.0.0, SVG Export Plug-In . SVG Version: 6.00 Build 0)  -->
<!DOCTYPE svg PUBLIC "-//W3C//DTD SVG 1.1//EN" "http://www.w3.org/Graphics/SVG/1.1/DTD/svg11.dtd">
<svg version="1.1" id="Layer_1" xmlns="http://www.w3.org/2000/svg" xmlns:xlink="http://www.w3.org/1999/xlink" x="0px" y="0px"
	 width="118.531px" height="11.516px" viewBox="0 0 118.531 11.516" enable-background="new 0 0 118.531 11.516"
	 xml:space="preserve">
<g>
	<g>
		<g>
			<path fill="#FFFFFF" d="M3.346,1.907H0.968c-0.262,0-0.486-0.093-0.672-0.28C0.114,1.445,0.023,1.223,0.023,0.961
				c0-0.261,0.091-0.482,0.272-0.664c0.187-0.187,0.411-0.28,0.672-0.28h6.653c0.256,0,0.478,0.093,0.664,0.28
				C8.467,0.479,8.558,0.7,8.558,0.961c0,0.262-0.091,0.483-0.272,0.665c-0.187,0.187-0.408,0.28-0.664,0.28H5.235v8.663
				c0,0.262-0.093,0.485-0.28,0.673c-0.182,0.182-0.403,0.271-0.665,0.271c-0.262,0-0.483-0.09-0.665-0.271
				c-0.187-0.188-0.28-0.411-0.28-0.673V1.907z"/>
			<path fill="#FFFFFF" d="M11.74,11.514c-0.262,0-0.483-0.093-0.665-0.279c-0.187-0.182-0.28-0.403-0.28-0.665V1.018
				c0-0.261,0.093-0.482,0.28-0.664c0.182-0.187,0.403-0.28,0.665-0.28c0.261,0,0.482,0.093,0.664,0.28
				c0.187,0.182,0.28,0.403,0.28,0.664v9.552c0,0.262-0.093,0.483-0.28,0.665C12.223,11.421,12.001,11.514,11.74,11.514z"/>
			<path fill="#FFFFFF" d="M23.665,11.154h-0.008v-0.008L17.9,3.74v6.83c0,0.262-0.093,0.483-0.28,0.665
				c-0.182,0.187-0.403,0.279-0.665,0.279s-0.483-0.093-0.664-0.279c-0.188-0.182-0.281-0.403-0.281-0.665V0.978
				c0-0.203,0.059-0.385,0.176-0.545c0.118-0.165,0.272-0.28,0.464-0.344c0.187-0.069,0.379-0.075,0.577-0.016
				c0.192,0.059,0.35,0.168,0.473,0.328l5.757,7.414V0.978c0-0.262,0.091-0.483,0.272-0.665c0.187-0.187,0.411-0.28,0.672-0.28
				s0.483,0.094,0.665,0.28c0.187,0.182,0.28,0.403,0.28,0.665v9.607c0,0.011-0.003,0.026-0.008,0.049c0,0.021,0,0.034,0,0.04
				c0,0.01-0.003,0.026-0.008,0.048c0,0.021-0.003,0.037-0.008,0.048l-0.008,0.04c-0.005,0.026-0.011,0.043-0.017,0.048
				c0,0.006-0.005,0.019-0.016,0.041c-0.005,0.021-0.011,0.037-0.016,0.047l-0.016,0.041l-0.024,0.039
				c-0.005,0.012-0.013,0.027-0.023,0.049l-0.024,0.023c-0.005,0.011-0.016,0.027-0.032,0.049l-0.024,0.031
				c-0.005,0.006-0.016,0.016-0.032,0.031c-0.016,0.021-0.026,0.033-0.032,0.033c0,0.005-0.011,0.016-0.032,0.031
				c-0.016,0.016-0.029,0.027-0.04,0.033c0.016-0.012,0.013-0.009-0.008,0.008l-0.007,0.008c-0.043,0.031-0.083,0.059-0.121,0.08
				h-0.008c-0.043,0.021-0.085,0.039-0.128,0.057c-0.021,0.01-0.026,0.013-0.016,0.008c-0.042,0.016-0.088,0.026-0.136,0.031
				l-0.024,0.008c-0.048,0.006-0.094,0.008-0.136,0.008c-0.032,0-0.067-0.002-0.104-0.008c0.011,0.006,0.005,0.006-0.016,0
				c-0.032-0.006-0.059-0.011-0.08-0.016c0.005,0.005-0.005,0.003-0.032-0.008c-0.027-0.006-0.048-0.011-0.064-0.016
				c-0.005,0-0.016-0.006-0.032-0.018c-0.027-0.005-0.048-0.012-0.064-0.023c-0.011,0-0.021-0.005-0.032-0.016
				c-0.021-0.012-0.04-0.019-0.056-0.024c-0.016-0.011-0.027-0.019-0.032-0.024c-0.016-0.01-0.035-0.023-0.057-0.039
				c-0.016-0.011-0.026-0.02-0.031-0.024c-0.027-0.021-0.051-0.043-0.072-0.063l-0.008-0.009v-0.007
				c-0.021-0.022-0.032-0.033-0.032-0.033S23.68,11.175,23.665,11.154z"/>
			<path fill="#FFFFFF" d="M29.784,11.514c-0.256,0-0.478-0.09-0.664-0.271c-0.187-0.188-0.281-0.411-0.281-0.673V0.986
				c0-0.262,0.094-0.485,0.281-0.673c0.181-0.181,0.402-0.272,0.664-0.272h2.426c1.58,0,2.931,0.558,4.051,1.673
				c1.116,1.121,1.674,2.469,1.674,4.043c0,1.58-0.558,2.928-1.674,4.043c-1.121,1.121-2.471,1.682-4.051,1.682l-2.41,0.031H29.784z
				 M30.737,9.609l1.465-0.025c1.062,0,1.967-0.373,2.714-1.121c0.747-0.746,1.12-1.648,1.12-2.705c0-1.051-0.373-1.951-1.12-2.698
				c-0.748-0.752-1.649-1.129-2.707-1.129h-1.473V9.609z"/>
			<path fill="#FFFFFF" d="M46.184,11.514c-1.585,0-2.938-0.563-4.059-1.689c-1.126-1.121-1.689-2.473-1.689-4.059
				c0-1.585,0.563-2.941,1.689-4.067c1.121-1.121,2.474-1.681,4.059-1.681s2.941,0.561,4.067,1.681
				c1.121,1.126,1.681,2.482,1.681,4.067c0,1.586-0.561,2.938-1.681,4.059C49.125,10.951,47.77,11.514,46.184,11.514z M46.184,1.907
				c-1.062,0-1.969,0.376-2.722,1.128c-0.758,0.758-1.136,1.668-1.136,2.73c0,1.063,0.378,1.97,1.136,2.722
				c0.753,0.759,1.66,1.138,2.722,1.138s1.972-0.379,2.73-1.138c0.752-0.752,1.129-1.659,1.129-2.722
				c0-1.062-0.376-1.973-1.129-2.73C48.156,2.283,47.246,1.907,46.184,1.907z"/>
			<path fill="#FFFFFF" d="M55.979,11.033c0,0.134-0.045,0.248-0.136,0.345c-0.096,0.091-0.208,0.136-0.336,0.136
				c-0.134,0-0.249-0.045-0.345-0.136c-0.09-0.097-0.136-0.211-0.136-0.345V0.537c0-0.24,0.118-0.392,0.352-0.456
				c0.229-0.064,0.408,0.008,0.537,0.216l4.771,7.886l4.772-7.886c0.127-0.208,0.307-0.28,0.536-0.216
				c0.235,0.064,0.353,0.216,0.353,0.456v10.496c0,0.134-0.049,0.248-0.145,0.345c-0.091,0.091-0.203,0.136-0.336,0.136
				c-0.129,0-0.24-0.045-0.337-0.136c-0.091-0.097-0.136-0.211-0.136-0.345V2.251l-4.299,7.102l-0.009,0.007v0.01
				c-0.011,0.01-0.021,0.023-0.032,0.039c-0.016,0.016-0.026,0.027-0.031,0.032c-0.012,0.011-0.021,0.021-0.033,0.032
				c-0.016,0.011-0.029,0.021-0.039,0.031c-0.027,0.018-0.032,0.02-0.016,0.008c0.005-0.005-0.004-0.002-0.024,0.01
				c-0.017,0.01-0.032,0.018-0.048,0.023c-0.012,0.005-0.024,0.01-0.04,0.016c-0.017,0.006-0.032,0.008-0.049,0.008
				c-0.011,0.006-0.024,0.008-0.04,0.008c-0.016,0.006-0.031,0.008-0.048,0.008c-0.016,0-0.032-0.002-0.048-0.008
				c-0.016,0-0.029-0.002-0.04-0.008c-0.017,0-0.032-0.002-0.048-0.008s-0.029-0.011-0.04-0.016
				c-0.017-0.006-0.032-0.014-0.048-0.023c-0.006,0-0.011,0-0.017,0c0-0.006-0.003-0.01-0.008-0.01
				c0.017,0.012,0.011,0.01-0.016-0.008c-0.011-0.01-0.024-0.021-0.04-0.031c-0.012-0.011-0.021-0.021-0.032-0.032
				s-0.021-0.021-0.032-0.032c-0.011-0.016-0.021-0.029-0.031-0.039v-0.01l-0.01-0.007l-4.298-7.102V11.033z"/>
			<path fill="#FFFFFF" d="M91.741,11.346l-0.008-0.008l-0.008-0.008l-7.326-9.439v9.143c0,0.134-0.048,0.246-0.144,0.338
				c-0.092,0.096-0.203,0.143-0.337,0.143s-0.245-0.047-0.336-0.143c-0.097-0.092-0.144-0.204-0.144-0.338V0.49
				c0-0.229,0.105-0.382,0.32-0.457c0.218-0.075,0.396-0.021,0.535,0.161l7.334,9.439V0.49c0-0.133,0.046-0.246,0.137-0.336
				c0.096-0.096,0.208-0.145,0.336-0.145c0.133,0,0.248,0.048,0.345,0.145c0.091,0.091,0.136,0.203,0.136,0.336v10.543
				c0-0.01,0,0,0,0.033c0,0.016-0.003,0.031-0.008,0.047c0,0.012-0.004,0.024-0.008,0.041c-0.006,0.021-0.012,0.037-0.018,0.047
				c-0.004,0.012-0.01,0.024-0.015,0.041c-0.006,0.016-0.014,0.029-0.024,0.039c-0.006,0.012-0.014,0.025-0.023,0.041
				c-0.011,0.016-0.021,0.029-0.033,0.039c-0.005,0.006-0.016,0.017-0.031,0.032c-0.027,0.022-0.035,0.027-0.024,0.017
				c0.011-0.006,0.005,0-0.016,0.016c-0.005,0.006-0.014,0.012-0.024,0.016c-0.016,0.012-0.031,0.02-0.048,0.025
				c-0.011,0.005-0.021,0.01-0.032,0.016c-0.016,0.005-0.035,0.011-0.055,0.016c-0.018,0.006-0.027,0.008-0.033,0.008
				c-0.031,0.006-0.062,0.008-0.088,0.008c-0.031,0-0.064-0.002-0.096-0.008l-0.032-0.008c-0.026-0.011-0.048-0.019-0.064-0.024
				c-0.005-0.005-0.016-0.013-0.032-0.024c-0.021-0.01-0.039-0.021-0.056-0.031c-0.005-0.006-0.017-0.014-0.032-0.024
				c-0.016-0.016-0.023-0.022-0.023-0.022S91.758,11.361,91.741,11.346z"/>
			<path fill="#FFFFFF" d="M96.404,11.514c-0.134,0-0.246-0.045-0.336-0.136c-0.096-0.097-0.145-0.211-0.145-0.345V0.505
				c0-0.133,0.049-0.249,0.145-0.344c0.09-0.096,0.202-0.144,0.336-0.144h2.666c1.58,0,2.93,0.561,4.051,1.681
				c1.121,1.121,1.682,2.471,1.682,4.051c0,1.581-0.561,2.931-1.682,4.052s-2.471,1.682-4.051,1.682l-2.658,0.031H96.404z
				 M96.885,10.545l2.178-0.031c1.318,0,2.444-0.465,3.379-1.393c0.934-0.936,1.4-2.059,1.4-3.372c0-1.313-0.467-2.436-1.4-3.37
				c-0.935-0.929-2.059-1.393-3.371-1.393h-2.186V10.545z"/>
			<path fill="#FFFFFF" d="M112.796,11.514c-1.585,0-2.938-0.561-4.06-1.681c-1.121-1.121-1.681-2.474-1.681-4.06
				c0-1.585,0.56-2.938,1.681-4.059s2.475-1.682,4.06-1.682s2.938,0.561,4.06,1.682s1.682,2.474,1.682,4.059
				c0,1.586-0.561,2.938-1.682,4.06C115.734,10.953,114.381,11.514,112.796,11.514z M112.796,0.986
				c-1.318,0-2.444,0.469-3.378,1.409c-0.935,0.934-1.401,2.06-1.401,3.378s0.467,2.445,1.401,3.379c0.934,0.934,2.06,1.4,3.378,1.4
				s2.444-0.467,3.379-1.4c0.939-0.934,1.409-2.061,1.409-3.379s-0.47-2.444-1.409-3.378C115.24,1.455,114.114,0.986,112.796,0.986z
				"/>
		</g>
		<g>
			<path fill="#FFFFFF" d="M78.656,1.714c-1.121-1.121-2.475-1.682-4.059-1.682c-1.586,0-2.939,0.561-4.06,1.682
				c-1.121,1.121-1.681,2.474-1.681,4.059c0,1.586,0.56,2.938,1.681,4.06c1.12,1.12,2.474,1.681,4.06,1.681
				c1.584,0,2.938-0.561,4.059-1.681c1.121-1.121,1.682-2.474,1.682-4.06C80.338,4.188,79.777,2.835,78.656,1.714z M69.817,5.773
				c0-0.732,0.144-1.404,0.433-2.018c0.112,0.136,0.254,0.268,0.42,0.337c0,0,0.055,0.414,0.162,0.45
				c0.108,0.036,0.127,0.306,0.234,0.378c0.107,0.072,0.216,0.198,0,0.522c-0.217,0.325-0.433,1.171,0.324,1.711
				c0,0,0.126,0.197,0.107,0.414c-0.018,0.217-0.216,0.685-0.107,0.883c0.107,0.198,0,0.162,0.018,0.522
				c0.006,0.11,0.018,0.249,0.04,0.394c-0.078-0.068-0.155-0.14-0.229-0.215C70.284,8.219,69.817,7.092,69.817,5.773z M72.055,9.829
				c-0.021-0.386,0.127-0.554,0.362-0.729c0.288-0.216,0.378-0.252,0.522-0.469c0.145-0.215,0.234-0.378,0.539-0.468
				c0.308-0.091,0.487-0.343,0.56-0.648c0.071-0.306,0.288-0.339,0.323-0.575c0.037-0.235-0.071-0.434-0.666-0.704
				c0,0-0.162-0.514-0.864-0.95s-0.9-0.652-1.135-0.473c-0.234,0.18-0.594,0.054-0.63-0.396c-0.025-0.305-0.099-0.329-0.127-0.324
				c0,0,0,0,0,0c0.055-0.036,0.541-0.18,0.234-0.271c-0.306-0.089-0.666-0.486-0.144-0.72c0.522-0.234,0.738,0.306,0.847,0.342
				c0.107,0.036,0.09-0.287,0.27-0.486c0.18-0.198,0.505-0.414,1.027-0.45c0.521-0.036,0.521-0.09,0.63-0.18
				c0.107-0.09,0.181-0.036,0.306,0c0.127,0.036,0.324-0.072,0.342-0.252c0.02-0.18-0.143-0.775-0.485-0.577
				c-0.342,0.198-0.721,0.504-0.738,0.18c-0.011-0.184,0.007-0.377,0.022-0.511c0.425-0.121,0.873-0.183,1.348-0.183
				c0,0,0.002,0,0.004,0c-0.079,0.17-0.134,0.477,0.295,0.734c0,0-0.09-0.163,0.324-0.433c0.154-0.1,0.315-0.155,0.457-0.186
				c0.348,0.077,0.678,0.192,0.994,0.346c-0.004,0.169,0.012,0.423,0.116,0.504c0.161,0.126,0.252,0.198,0.306,0.252
				c0.055,0.054,0.252,0.108,0.307,0.126c0.054,0.019,0.144,0.36,0,0.504c-0.145,0.144-0.648,0.09-0.729,0.252
				c-0.081,0.162,0.369,0.63,0.531,0.486c0.161-0.144,0.486-0.504,0.738-0.216c0.252,0.288,0.271,0.306,0.36,0.243
				s0.234,0.243,0.594,0.279c0,0,0.012-0.087,0.003-0.23c0.271,0.536,0.428,1.117,0.473,1.745c-0.23-0.765-0.733-1.181-0.763-1.173
				c-0.072,0.018-0.091,0.072-0.415-0.072c-0.323-0.144-0.323-0.234-0.847-0.342c-0.521-0.108-1.008,0.108-1.188,0.306
				c-0.182,0.198-0.469,0.271-0.415,0.522c0.054,0.252-0.216,0.577-0.145,0.988c0.072,0.412,0.774,0.866,1.261,0.813
				c0.486-0.055,0.613,0.035,0.654,0.324c0.041,0.287-0.222,0.414-0.078,0.756c0.145,0.342,0.091,0.469-0.18,0.738
				c-0.27,0.27-0.145,0.631-0.107,0.775c0.021,0.087-0.149,0.586-0.286,0.965c-0.68,0.371-1.434,0.557-2.265,0.557
				C73.65,10.553,72.803,10.311,72.055,9.829z"/>
			<path fill="#FFFFFF" d="M76.968,2.583c0.162-0.216-0.433-0.577-0.433-0.577s-0.145,0.126-0.107,0.234
				C76.464,2.349,76.807,2.799,76.968,2.583z"/>
			<path fill="#FFFFFF" d="M75.561,1.488c0,0-0.457,0.074-0.346,0.218C75.326,1.851,75.975,2.045,75.561,1.488z"/>
			<path fill="#FFFFFF" d="M71.421,3.501c0,0-0.378,0.212-0.162,0.277c0.216,0.064,0.577,0.062,0.676,0
				C72.033,3.718,71.421,3.501,71.421,3.501z"/>
		</g>
	</g>
</g>
</svg>
